<svg xmlns="http://www.w3.org/2000/svg" width="1200" height="800" viewBox="0 0 1200 800" role="img" aria-label="inspection hero">
  <defs>
    <linearGradient id="bg" x1="0" y1="0" x2="1" y2="1">
      <stop offset="0%" stop-color="#e4edf4" />
      <stop offset="100%" stop-color="#f7f2ec" />
    </linearGradient>
    <linearGradient id="roof" x1="0" y1="0" x2="1" y2="1">
      <stop offset="0%" stop-color="#385371" />
      <stop offset="100%" stop-color="#2f3f55" />
    </linearGradient>
  </defs>
  <rect width="1200" height="800" fill="url(#bg)" />
  <rect y="520" width="1200" height="280" fill="#eef2f3" />
  <rect x="120" y="520" width="960" height="220" fill="#e6e6e0" />
  <polygon points="300,520 600,320 900,520" fill="url(#roof)" />
  <rect x="360" y="520" width="480" height="180" fill="#f7f5f1" stroke="#d9d4cd" stroke-width="3" />
  <rect x="520" y="570" width="160" height="130" fill="#d9c9b5" />
  <rect x="420" y="560" width="70" height="70" fill="#cfd8df" />
  <rect x="710" y="560" width="70" height="70" fill="#cfd8df" />
  <circle cx="140" cy="200" r="80" fill="#f4d7a8" opacity="0.6" />
  <circle cx="1040" cy="190" r="60" fill="#f1c78f" opacity="0.5" />
  <rect x="80" y="500" width="60" height="160" fill="#7f8c8d" />
  <circle cx="110" cy="470" r="70" fill="#8fb6a3" />
  <rect x="1040" y="500" width="60" height="160" fill="#7f8c8d" />
  <circle cx="1070" cy="470" r="70" fill="#8fb6a3" />
</svg>
